STARTFONT 2.1
FONT -FontForge-Times Cyrillic-Normal-R-Normal--9-60-100-100-P-98-WinRoman-0
SIZE 6 100 100
FONTBOUNDINGBOX 19 11 0 -2
COMMENT "Generated by fontforge, http://fontforge.sourceforge.net"
COMMENT "Copyright (C) Steepler Ltd., 1990-92."
STARTPROPERTIES 34
FOUNDRY "FontForge"
FAMILY_NAME "Times Cyrillic"
WEIGHT_NAME "Normal"
SLANT "R"
SETWIDTH_NAME "Normal"
ADD_STYLE_NAME ""
PIXEL_SIZE 9
POINT_SIZE 60
RESOLUTION_X 100
RESOLUTION_Y 100
SPACING "P"
AVERAGE_WIDTH 98
CHARSET_REGISTRY "WinRoman"
CHARSET_ENCODING "0"
FONTNAME_REGISTRY ""
CHARSET_COLLECTIONS "WinRoman"
FONT_NAME "TimesCyrillic"
FACE_NAME "Times Cyrillic"
COPYRIGHT "Copyright (C) Steepler Ltd., 1990-92."
FONT_VERSION "001.000"
FONT_ASCENT 7
FONT_DESCENT 2
UNDERLINE_POSITION -1
UNDERLINE_THICKNESS 1
X_HEIGHT 4
CAP_HEIGHT 6
RAW_ASCENT 800
RAW_DESCENT 200
NORM_SPACE 4
RELATIVE_WEIGHT 40
RELATIVE_SETWIDTH 50
FIGURE_WIDTH 9
AVG_LOWERCASE_WIDTH 92
AVG_UPPERCASE_WIDTH 129
ENDPROPERTIES
CHARS 224
STARTCHAR space
ENCODING 32
SWIDTH 500 0
DWIDTH 4 0
BBX 1 1 3 -2
BITMAP
00
ENDCHAR
STARTCHAR exclam
ENCODING 33
SWIDTH 562 0
DWIDTH 6 0
BBX 2 7 2 0
BITMAP
C0
C0
C0
C0
C0
00
C0
ENDCHAR
STARTCHAR quotedbl
ENCODING 34
SWIDTH 688 0
DWIDTH 7 0
BBX 5 2 1 5
BITMAP
D8
D8
ENDCHAR
STARTCHAR numbersign
ENCODING 35
SWIDTH 1562 0
DWIDTH 14 0
BBX 12 7 1 0
BITMAP
0CC0
0CC0
7FF0
1980
FFE0
3300
3300
ENDCHAR
STARTCHAR dollar
ENCODING 36
SWIDTH 1000 0
DWIDTH 9 0
BBX 8 8 1 -1
BITMAP
08
7E
C9
78
1E
93
7E
10
ENDCHAR
STARTCHAR percent
ENCODING 37
SWIDTH 1812 0
DWIDTH 17 0
BBX 16 7 1 0
BITMAP
3FF0
4660
C4C0
799E
0323
0662
0C3C
ENDCHAR
STARTCHAR ampersand
ENCODING 38
SWIDTH 1562 0
DWIDTH 14 0
BBX 13 7 1 0
BITMAP
0F00
3180
3180
1E38
6360
C1C0
7E78
ENDCHAR
STARTCHAR quotesingle
ENCODING 39
SWIDTH 500 0
DWIDTH 6 0
BBX 2 2 2 5
BITMAP
C0
C0
ENDCHAR
STARTCHAR parenleft
ENCODING 40
SWIDTH 688 0
DWIDTH 6 0
BBX 3 8 2 -1
BITMAP
60
C0
C0
C0
C0
C0
C0
60
ENDCHAR
STARTCHAR parenright
ENCODING 41
SWIDTH 688 0
DWIDTH 6 0
BBX 3 8 2 -1
BITMAP
C0
60
60
60
60
60
60
C0
ENDCHAR
STARTCHAR asterisk
ENCODING 42
SWIDTH 1000 0
DWIDTH 9 0
BBX 7 3 1 4
BITMAP
D6
38
D6
ENDCHAR
STARTCHAR plus
ENCODING 43
SWIDTH 1188 0
DWIDTH 11 0
BBX 10 5 1 0
BITMAP
0C00
0C00
FFC0
0C00
0C00
ENDCHAR
STARTCHAR comma
ENCODING 44
SWIDTH 500 0
DWIDTH 4 0
BBX 2 3 1 -2
BITMAP
C0
40
80
ENDCHAR
STARTCHAR hyphen
ENCODING 45
SWIDTH 625 0
DWIDTH 6 0
BBX 5 1 1 2
BITMAP
F8
ENDCHAR
STARTCHAR period
ENCODING 46
SWIDTH 500 0
DWIDTH 4 0
BBX 2 1 1 0
BITMAP
C0
ENDCHAR
STARTCHAR slash
ENCODING 47
SWIDTH 562 0
DWIDTH 5 0
BBX 5 8 0 -1
BITMAP
18
18
30
30
60
60
C0
C0
ENDCHAR
STARTCHAR zero
ENCODING 48
SWIDTH 1000 0
DWIDTH 9 0
BBX 8 7 1 0
BITMAP
3C
C3
C3
C3
C3
C3
3C
ENDCHAR
STARTCHAR one
ENCODING 49
SWIDTH 1000 0
DWIDTH 9 0
BBX 6 7 2 0
BITMAP
30
F0
30
30
30
30
FC
ENDCHAR
STARTCHAR two
ENCODING 50
SWIDTH 1000 0
DWIDTH 9 0
BBX 8 7 1 0
BITMAP
7E
83
03
0C
30
41
FF
ENDCHAR
STARTCHAR three
ENCODING 51
SWIDTH 1000 0
DWIDTH 9 0
BBX 8 7 1 0
BITMAP
3E
43
03
1E
03
C3
7E
ENDCHAR
STARTCHAR four
ENCODING 52
SWIDTH 1000 0
DWIDTH 9 0
BBX 8 7 1 0
BITMAP
0E
16
26
46
FF
06
06
ENDCHAR
STARTCHAR five
ENCODING 53
SWIDTH 1000 0
DWIDTH 9 0
BBX 8 7 1 0
BITMAP
7F
60
7E
03
03
C3
7E
ENDCHAR
STARTCHAR six
ENCODING 54
SWIDTH 1000 0
DWIDTH 9 0
BBX 8 7 1 0
BITMAP
1E
60
C0
FE
C3
C3
7E
ENDCHAR
STARTCHAR seven
ENCODING 55
SWIDTH 1000 0
DWIDTH 9 0
BBX 8 7 1 0
BITMAP
FF
86
0C
0C
18
18
30
ENDCHAR
STARTCHAR eight
ENCODING 56
SWIDTH 1000 0
DWIDTH 9 0
BBX 8 7 1 0
BITMAP
7E
C3
E3
3C
C7
C3
7E
ENDCHAR
STARTCHAR nine
ENCODING 57
SWIDTH 1000 0
DWIDTH 9 0
BBX 8 7 1 0
BITMAP
7E
C3
C3
7F
03
06
78
ENDCHAR
STARTCHAR colon
ENCODING 58
SWIDTH 562 0
DWIDTH 5 0
BBX 2 5 1 0
BITMAP
C0
00
00
00
C0
ENDCHAR
STARTCHAR semicolon
ENCODING 59
SWIDTH 562 0
DWIDTH 5 0
BBX 2 7 1 -2
BITMAP
C0
00
00
00
C0
40
80
ENDCHAR
STARTCHAR less
ENCODING 60
SWIDTH 1188 0
DWIDTH 11 0
BBX 10 5 1 0
BITMAP
01C0
1E00
E000
1E00
01C0
ENDCHAR
STARTCHAR equal
ENCODING 61
SWIDTH 1188 0
DWIDTH 11 0
BBX 10 3 1 1
BITMAP
FFC0
0000
FFC0
ENDCHAR
STARTCHAR greater
ENCODING 62
SWIDTH 1188 0
DWIDTH 11 0
BBX 10 5 1 0
BITMAP
E000
1E00
01C0
1E00
E000
ENDCHAR
STARTCHAR question
ENCODING 63
SWIDTH 1000 0
DWIDTH 8 0
BBX 7 7 1 0
BITMAP
7C
C6
06
0C
10
00
30
ENDCHAR
STARTCHAR at
ENCODING 64
SWIDTH 2000 0
DWIDTH 18 0
BBX 15 8 2 -1
BITMAP
0FF0
300C
C3A6
CC66
CC66
C7DC
3000
0FE0
ENDCHAR
STARTCHAR A
ENCODING 65
SWIDTH 1562 0
DWIDTH 14 0
BBX 13 7 1 0
BITMAP
0200
0700
0980
10C0
3FE0
4030
E078
ENDCHAR
STARTCHAR B
ENCODING 66
SWIDTH 1375 0
DWIDTH 12 0
BBX 11 7 1 0
BITMAP
FF80
3060
3060
3F80
3060
3060
FF80
ENDCHAR
STARTCHAR C
ENCODING 67
SWIDTH 1438 0
DWIDTH 12 0
BBX 11 7 1 0
BITMAP
1FA0
6060
C020
C000
C000
6060
1F80
ENDCHAR
STARTCHAR D
ENCODING 68
SWIDTH 1625 0
DWIDTH 14 0
BBX 13 7 1 0
BITMAP
FFC0
3070
3018
3018
3018
3070
FFC0
ENDCHAR
STARTCHAR E
ENCODING 69
SWIDTH 1375 0
DWIDTH 12 0
BBX 11 7 1 0
BITMAP
FFE0
3020
3080
3F80
3080
3020
FFE0
ENDCHAR
STARTCHAR F
ENCODING 70
SWIDTH 1250 0
DWIDTH 11 0
BBX 10 7 1 0
BITMAP
FFC0
3040
3100
3F00
3100
3000
FC00
ENDCHAR
STARTCHAR G
ENCODING 71
SWIDTH 1562 0
DWIDTH 13 0
BBX 12 7 1 0
BITMAP
1FA0
6060
C000
C1F0
C060
6060
1F80
ENDCHAR
STARTCHAR H
ENCODING 72
SWIDTH 1625 0
DWIDTH 15 0
BBX 14 7 1 0
BITMAP
FCFC
3030
3030
3FF0
3030
3030
FCFC
ENDCHAR
STARTCHAR I
ENCODING 73
SWIDTH 750 0
DWIDTH 7 0
BBX 6 7 1 0
BITMAP
FC
30
30
30
30
30
FC
ENDCHAR
STARTCHAR J
ENCODING 74
SWIDTH 812 0
DWIDTH 8 0
BBX 8 7 0 0
BITMAP
3F
0C
0C
0C
0C
CC
78
ENDCHAR
STARTCHAR K
ENCODING 75
SWIDTH 1438 0
DWIDTH 13 0
BBX 12 7 1 0
BITMAP
FDF0
30C0
3300
3E00
3300
30C0
FDF0
ENDCHAR
STARTCHAR L
ENCODING 76
SWIDTH 1312 0
DWIDTH 11 0
BBX 10 7 1 0
BITMAP
FC00
3000
3000
3000
3040
3040
FFC0
ENDCHAR
STARTCHAR M
ENCODING 77
SWIDTH 1875 0
DWIDTH 17 0
BBX 16 7 1 0
BITMAP
F00F
381C
2C2C
264C
238C
210C
F83F
ENDCHAR
STARTCHAR N
ENCODING 78
SWIDTH 1562 0
DWIDTH 14 0
BBX 13 7 1 0
BITMAP
F0F8
3820
2C20
2620
2320
21A0
F8E0
ENDCHAR
STARTCHAR O
ENCODING 79
SWIDTH 1562 0
DWIDTH 13 0
BBX 12 7 1 0
BITMAP
1F80
6060
C030
C030
C030
6060
1F80
ENDCHAR
STARTCHAR P
ENCODING 80
SWIDTH 1188 0
DWIDTH 12 0
BBX 11 7 1 0
BITMAP
FF80
3060
3060
3F80
3000
3000
FC00
ENDCHAR
STARTCHAR Q
ENCODING 81
SWIDTH 1562 0
DWIDTH 13 0
BBX 12 8 1 -1
BITMAP
1F80
6060
C030
C030
C030
6060
1F80
03C0
ENDCHAR
STARTCHAR R
ENCODING 82
SWIDTH 1500 0
DWIDTH 12 0
BBX 11 7 1 0
BITMAP
FF80
3060
3060
3F80
3180
30C0
FC60
ENDCHAR
STARTCHAR S
ENCODING 83
SWIDTH 1125 0
DWIDTH 9 0
BBX 8 7 1 0
BITMAP
3D
C3
C0
3C
03
C3
BE
ENDCHAR
STARTCHAR T
ENCODING 84
SWIDTH 1250 0
DWIDTH 11 0
BBX 10 7 1 0
BITMAP
FFC0
8C40
0C00
0C00
0C00
0C00
3F00
ENDCHAR
STARTCHAR U
ENCODING 85
SWIDTH 1625 0
DWIDTH 15 0
BBX 14 7 1 0
BITMAP
FC7C
3010
3010
3010
3010
1820
0FC0
ENDCHAR
STARTCHAR V
ENCODING 86
SWIDTH 1562 0
DWIDTH 14 0
BBX 13 7 1 0
BITMAP
F038
6010
3020
1840
0C80
0700
0200
ENDCHAR
STARTCHAR W
ENCODING 87
SWIDTH 2000 0
DWIDTH 18 0
BBX 17 7 1 0
BITMAP
F1E380
60C100
30C200
316200
1A3400
0C1800
0C1800
ENDCHAR
STARTCHAR X
ENCODING 88
SWIDTH 1562 0
DWIDTH 14 0
BBX 13 7 1 0
BITMAP
F8F8
3060
0C80
0700
0980
3060
F8F8
ENDCHAR
STARTCHAR Y
ENCODING 89
SWIDTH 1500 0
DWIDTH 13 0
BBX 12 7 1 0
BITMAP
FCF0
3040
1880
0D00
0600
0600
1F80
ENDCHAR
STARTCHAR Z
ENCODING 90
SWIDTH 1438 0
DWIDTH 12 0
BBX 11 7 1 0
BITMAP
FFE0
80C0
0300
0C00
1800
6020
FFE0
ENDCHAR
STARTCHAR bracketleft
ENCODING 91
SWIDTH 625 0
DWIDTH 6 0
BBX 4 8 1 -1
BITMAP
F0
C0
C0
C0
C0
C0
C0
F0
ENDCHAR
STARTCHAR backslash
ENCODING 92
SWIDTH 562 0
DWIDTH 5 0
BBX 5 8 0 -1
BITMAP
C0
C0
60
60
30
30
18
18
ENDCHAR
STARTCHAR bracketright
ENCODING 93
SWIDTH 625 0
DWIDTH 6 0
BBX 4 8 1 -1
BITMAP
F0
30
30
30
30
30
30
F0
ENDCHAR
STARTCHAR asciicircum
ENCODING 94
SWIDTH 1000 0
DWIDTH 9 0
BBX 9 3 0 4
BITMAP
0800
3600
C180
ENDCHAR
STARTCHAR underscore
ENCODING 95
SWIDTH 1000 0
DWIDTH 9 0
BBX 9 1 0 -2
BITMAP
FF80
ENDCHAR
STARTCHAR grave
ENCODING 96
SWIDTH 1000 0
DWIDTH 9 0
BBX 4 2 2 6
BITMAP
C0
30
ENDCHAR
STARTCHAR a
ENCODING 97
SWIDTH 1000 0
DWIDTH 9 0
BBX 8 5 1 0
BITMAP
7C
06
7E
C6
7B
ENDCHAR
STARTCHAR b
ENCODING 98
SWIDTH 1062 0
DWIDTH 10 0
BBX 9 7 1 0
BITMAP
E000
6000
6F00
7180
6180
6100
3E00
ENDCHAR
STARTCHAR c
ENCODING 99
SWIDTH 875 0
DWIDTH 7 0
BBX 6 5 1 0
BITMAP
3C
4C
C0
C4
78
ENDCHAR
STARTCHAR d
ENCODING 100
SWIDTH 1125 0
DWIDTH 10 0
BBX 9 7 1 0
BITMAP
0700
0300
3B00
4700
C300
C300
7D80
ENDCHAR
STARTCHAR e
ENCODING 101
SWIDTH 938 0
DWIDTH 8 0
BBX 7 5 1 0
BITMAP
3C
46
FE
C0
7C
ENDCHAR
STARTCHAR f
ENCODING 102
SWIDTH 625 0
DWIDTH 5 0
BBX 4 7 1 0
BITMAP
30
60
F0
60
60
60
F0
ENDCHAR
STARTCHAR g
ENCODING 103
SWIDTH 1000 0
DWIDTH 9 0
BBX 9 7 0 -2
BITMAP
3F80
6300
6300
3C00
7700
C180
7F00
ENDCHAR
STARTCHAR h
ENCODING 104
SWIDTH 1125 0
DWIDTH 10 0
BBX 9 7 1 0
BITMAP
E000
6000
6E00
7300
6300
6300
F780
ENDCHAR
STARTCHAR i
ENCODING 105
SWIDTH 562 0
DWIDTH 5 0
BBX 4 7 1 0
BITMAP
60
00
E0
60
60
60
F0
ENDCHAR
STARTCHAR j
ENCODING 106
SWIDTH 438 0
DWIDTH 5 0
BBX 4 9 0 -2
BITMAP
30
00
70
30
30
30
30
30
E0
ENDCHAR
STARTCHAR k
ENCODING 107
SWIDTH 1062 0
DWIDTH 9 0
BBX 8 7 1 0
BITMAP
E0
60
67
6C
78
6C
E7
ENDCHAR
STARTCHAR l
ENCODING 108
SWIDTH 562 0
DWIDTH 5 0
BBX 4 7 1 0
BITMAP
E0
60
60
60
60
60
F0
ENDCHAR
STARTCHAR m
ENCODING 109
SWIDTH 1688 0
DWIDTH 15 0
BBX 14 5 1 0
BITMAP
EE70
7398
6318
6318
F7BC
ENDCHAR
STARTCHAR n
ENCODING 110
SWIDTH 1125 0
DWIDTH 10 0
BBX 9 5 1 0
BITMAP
EE00
7300
6300
6300
F780
ENDCHAR
STARTCHAR o
ENCODING 111
SWIDTH 1000 0
DWIDTH 9 0
BBX 8 5 1 0
BITMAP
3E
43
C3
C2
7C
ENDCHAR
STARTCHAR p
ENCODING 112
SWIDTH 1125 0
DWIDTH 10 0
BBX 9 7 1 -2
BITMAP
EF00
7180
6180
7100
6E00
6000
F800
ENDCHAR
STARTCHAR q
ENCODING 113
SWIDTH 1062 0
DWIDTH 10 0
BBX 9 7 1 -2
BITMAP
3D00
4300
C300
C700
7B00
0300
0780
ENDCHAR
STARTCHAR r
ENCODING 114
SWIDTH 812 0
DWIDTH 6 0
BBX 5 5 1 0
BITMAP
D8
68
60
60
F0
ENDCHAR
STARTCHAR s
ENCODING 115
SWIDTH 750 0
DWIDTH 6 0
BBX 5 5 1 0
BITMAP
78
C0
70
18
F0
ENDCHAR
STARTCHAR t
ENCODING 116
SWIDTH 625 0
DWIDTH 5 0
BBX 4 6 1 0
BITMAP
60
F0
60
60
60
30
ENDCHAR
STARTCHAR u
ENCODING 117
SWIDTH 1125 0
DWIDTH 10 0
BBX 9 5 1 0
BITMAP
E700
6300
6300
6700
3B80
ENDCHAR
STARTCHAR v
ENCODING 118
SWIDTH 938 0
DWIDTH 9 0
BBX 8 5 1 0
BITMAP
F7
62
34
34
18
ENDCHAR
STARTCHAR w
ENCODING 119
SWIDTH 1375 0
DWIDTH 12 0
BBX 11 5 1 0
BITMAP
E660
C620
6640
6B40
3180
ENDCHAR
STARTCHAR x
ENCODING 120
SWIDTH 938 0
DWIDTH 8 0
BBX 7 5 1 0
BITMAP
EE
64
38
4C
EE
ENDCHAR
STARTCHAR y
ENCODING 121
SWIDTH 938 0
DWIDTH 9 0
BBX 9 7 0 -2
BITMAP
7B80
3100
1A00
1A00
0C00
D800
7000
ENDCHAR
STARTCHAR z
ENCODING 122
SWIDTH 875 0
DWIDTH 7 0
BBX 6 5 1 0
BITMAP
FC
98
30
64
FC
ENDCHAR
STARTCHAR braceleft
ENCODING 123
SWIDTH 688 0
DWIDTH 7 0
BBX 6 9 1 -2
BITMAP
1C
30
30
30
E0
30
30
30
1C
ENDCHAR
STARTCHAR bar
ENCODING 124
SWIDTH 562 0
DWIDTH 5 0
BBX 2 9 2 -2
BITMAP
C0
C0
C0
C0
C0
C0
C0
C0
C0
ENDCHAR
STARTCHAR braceright
ENCODING 125
SWIDTH 688 0
DWIDTH 7 0
BBX 6 9 1 -2
BITMAP
E0
30
30
30
1C
30
30
30
E0
ENDCHAR
STARTCHAR asciitilde
ENCODING 126
SWIDTH 1000 0
DWIDTH 9 0
BBX 9 2 0 5
BITMAP
7980
CF00
ENDCHAR
STARTCHAR uni007F
ENCODING 127
SWIDTH 562 0
DWIDTH 7 0
BBX 3 7 2 0
BITMAP
E0
E0
E0
E0
E0
E0
E0
ENDCHAR
STARTCHAR Euro
ENCODING 128
SWIDTH 562 0
DWIDTH 7 0
BBX 3 7 2 0
BITMAP
E0
E0
E0
E0
E0
E0
E0
ENDCHAR
STARTCHAR NameMe.129
ENCODING 129
SWIDTH 562 0
DWIDTH 7 0
BBX 3 7 2 0
BITMAP
E0
E0
E0
E0
E0
E0
E0
ENDCHAR
STARTCHAR quotesinglbase
ENCODING 130
SWIDTH 562 0
DWIDTH 7 0
BBX 3 7 2 0
BITMAP
E0
E0
E0
E0
E0
E0
E0
ENDCHAR
STARTCHAR florin
ENCODING 131
SWIDTH 562 0
DWIDTH 7 0
BBX 3 7 2 0
BITMAP
E0
E0
E0
E0
E0
E0
E0
ENDCHAR
STARTCHAR quotedblbase
ENCODING 132
SWIDTH 562 0
DWIDTH 7 0
BBX 3 7 2 0
BITMAP
E0
E0
E0
E0
E0
E0
E0
ENDCHAR
STARTCHAR ellipsis
ENCODING 133
SWIDTH 562 0
DWIDTH 7 0
BBX 3 7 2 0
BITMAP
E0
E0
E0
E0
E0
E0
E0
ENDCHAR
STARTCHAR dagger
ENCODING 134
SWIDTH 562 0
DWIDTH 7 0
BBX 3 7 2 0
BITMAP
E0
E0
E0
E0
E0
E0
E0
ENDCHAR
STARTCHAR daggerdbl
ENCODING 135
SWIDTH 562 0
DWIDTH 7 0
BBX 3 7 2 0
BITMAP
E0
E0
E0
E0
E0
E0
E0
ENDCHAR
STARTCHAR circumflex
ENCODING 136
SWIDTH 562 0
DWIDTH 7 0
BBX 3 7 2 0
BITMAP
E0
E0
E0
E0
E0
E0
E0
ENDCHAR
STARTCHAR perthousand
ENCODING 137
SWIDTH 562 0
DWIDTH 7 0
BBX 3 7 2 0
BITMAP
E0
E0
E0
E0
E0
E0
E0
ENDCHAR
STARTCHAR Scaron
ENCODING 138
SWIDTH 562 0
DWIDTH 7 0
BBX 3 7 2 0
BITMAP
E0
E0
E0
E0
E0
E0
E0
ENDCHAR
STARTCHAR guilsinglleft
ENCODING 139
SWIDTH 562 0
DWIDTH 7 0
BBX 3 7 2 0
BITMAP
E0
E0
E0
E0
E0
E0
E0
ENDCHAR
STARTCHAR OE
ENCODING 140
SWIDTH 562 0
DWIDTH 7 0
BBX 3 7 2 0
BITMAP
E0
E0
E0
E0
E0
E0
E0
ENDCHAR
STARTCHAR NameMe.141
ENCODING 141
SWIDTH 562 0
DWIDTH 7 0
BBX 3 7 2 0
BITMAP
E0
E0
E0
E0
E0
E0
E0
ENDCHAR
STARTCHAR Zcaron
ENCODING 142
SWIDTH 562 0
DWIDTH 7 0
BBX 3 7 2 0
BITMAP
E0
E0
E0
E0
E0
E0
E0
ENDCHAR
STARTCHAR NameMe.143
ENCODING 143
SWIDTH 562 0
DWIDTH 7 0
BBX 3 7 2 0
BITMAP
E0
E0
E0
E0
E0
E0
E0
ENDCHAR
STARTCHAR NameMe.144
ENCODING 144
SWIDTH 562 0
DWIDTH 7 0
BBX 3 7 2 0
BITMAP
E0
E0
E0
E0
E0
E0
E0
ENDCHAR
STARTCHAR quoteleft
ENCODING 145
SWIDTH 500 0
DWIDTH 4 0
BBX 2 3 1 4
BITMAP
40
80
C0
ENDCHAR
STARTCHAR quoteright
ENCODING 146
SWIDTH 500 0
DWIDTH 4 0
BBX 2 3 1 4
BITMAP
C0
40
80
ENDCHAR
STARTCHAR quotedblleft
ENCODING 147
SWIDTH 562 0
DWIDTH 7 0
BBX 3 7 2 0
BITMAP
E0
E0
E0
E0
E0
E0
E0
ENDCHAR
STARTCHAR quotedblright
ENCODING 148
SWIDTH 562 0
DWIDTH 7 0
BBX 3 7 2 0
BITMAP
E0
E0
E0
E0
E0
E0
E0
ENDCHAR
STARTCHAR bullet
ENCODING 149
SWIDTH 562 0
DWIDTH 7 0
BBX 3 7 2 0
BITMAP
E0
E0
E0
E0
E0
E0
E0
ENDCHAR
STARTCHAR endash
ENCODING 150
SWIDTH 562 0
DWIDTH 7 0
BBX 3 7 2 0
BITMAP
E0
E0
E0
E0
E0
E0
E0
ENDCHAR
STARTCHAR emdash
ENCODING 151
SWIDTH 562 0
DWIDTH 7 0
BBX 3 7 2 0
BITMAP
E0
E0
E0
E0
E0
E0
E0
ENDCHAR
STARTCHAR tilde
ENCODING 152
SWIDTH 562 0
DWIDTH 7 0
BBX 3 7 2 0
BITMAP
E0
E0
E0
E0
E0
E0
E0
ENDCHAR
STARTCHAR trademark
ENCODING 153
SWIDTH 562 0
DWIDTH 7 0
BBX 3 7 2 0
BITMAP
E0
E0
E0
E0
E0
E0
E0
ENDCHAR
STARTCHAR scaron
ENCODING 154
SWIDTH 562 0
DWIDTH 7 0
BBX 3 7 2 0
BITMAP
E0
E0
E0
E0
E0
E0
E0
ENDCHAR
STARTCHAR guilsinglright
ENCODING 155
SWIDTH 562 0
DWIDTH 7 0
BBX 3 7 2 0
BITMAP
E0
E0
E0
E0
E0
E0
E0
ENDCHAR
STARTCHAR oe
ENCODING 156
SWIDTH 562 0
DWIDTH 7 0
BBX 3 7 2 0
BITMAP
E0
E0
E0
E0
E0
E0
E0
ENDCHAR
STARTCHAR NameMe.157
ENCODING 157
SWIDTH 562 0
DWIDTH 7 0
BBX 3 7 2 0
BITMAP
E0
E0
E0
E0
E0
E0
E0
ENDCHAR
STARTCHAR zcaron
ENCODING 158
SWIDTH 562 0
DWIDTH 7 0
BBX 3 7 2 0
BITMAP
E0
E0
E0
E0
E0
E0
E0
ENDCHAR
STARTCHAR Ydieresis
ENCODING 159
SWIDTH 562 0
DWIDTH 7 0
BBX 3 7 2 0
BITMAP
E0
E0
E0
E0
E0
E0
E0
ENDCHAR
STARTCHAR uni00A0
ENCODING 160
SWIDTH 500 0
DWIDTH 4 0
BBX 1 1 3 -2
BITMAP
00
ENDCHAR
STARTCHAR exclamdown
ENCODING 161
SWIDTH 1375 0
DWIDTH 12 0
BBX 11 9 1 0
BITMAP
3180
0000
FFE0
3020
3080
3F80
3080
3020
FFE0
ENDCHAR
STARTCHAR cent
ENCODING 162
SWIDTH 1000 0
DWIDTH 9 0
BBX 8 7 1 -1
BITMAP
01
3E
46
C8
D2
7C
40
ENDCHAR
STARTCHAR sterling
ENCODING 163
SWIDTH 1000 0
DWIDTH 9 0
BBX 8 7 1 0
BITMAP
3E
63
30
FC
30
33
DE
ENDCHAR
STARTCHAR currency
ENCODING 164
SWIDTH 1188 0
DWIDTH 11 0
BBX 8 6 2 1
BITMAP
81
7E
C3
C3
7E
81
ENDCHAR
STARTCHAR yen
ENCODING 165
SWIDTH 1312 0
DWIDTH 13 0
BBX 12 7 1 0
BITMAP
FCF0
3040
1880
7DE0
0600
0600
1F80
ENDCHAR
STARTCHAR brokenbar
ENCODING 166
SWIDTH 562 0
DWIDTH 5 0
BBX 2 7 2 -1
BITMAP
C0
C0
C0
00
C0
C0
C0
ENDCHAR
STARTCHAR section
ENCODING 167
SWIDTH 1000 0
DWIDTH 9 0
BBX 7 8 1 -1
BITMAP
7C
C0
78
CC
66
3C
06
7C
ENDCHAR
STARTCHAR dieresis
ENCODING 168
SWIDTH 1000 0
DWIDTH 9 0
BBX 5 1 2 6
BITMAP
D8
ENDCHAR
STARTCHAR copyright
ENCODING 169
SWIDTH 1500 0
DWIDTH 14 0
BBX 13 8 1 -1
BITMAP
1FC0
6030
CF98
D898
D818
CF98
6030
1FC0
ENDCHAR
STARTCHAR ordfeminine
ENCODING 170
SWIDTH 688 0
DWIDTH 9 0
BBX 8 7 1 0
BITMAP
7C
06
7E
C6
7B
00
FF
ENDCHAR
STARTCHAR guillemotleft
ENCODING 171
SWIDTH 938 0
DWIDTH 8 0
BBX 7 3 1 1
BITMAP
66
CC
66
ENDCHAR
STARTCHAR logicalnot
ENCODING 172
SWIDTH 1188 0
DWIDTH 11 0
BBX 10 2 1 2
BITMAP
FFC0
00C0
ENDCHAR
STARTCHAR uni00AD
ENCODING 173
SWIDTH 625 0
DWIDTH 6 0
BBX 5 1 1 2
BITMAP
F8
ENDCHAR
STARTCHAR registered
ENCODING 174
SWIDTH 1500 0
DWIDTH 14 0
BBX 13 8 1 -1
BITMAP
1FC0
6030
DF98
CCD8
CF98
CCD8
6030
1FC0
ENDCHAR
STARTCHAR macron
ENCODING 175
SWIDTH 1000 0
DWIDTH 9 0
BBX 9 1 0 6
BITMAP
FF80
ENDCHAR
STARTCHAR degree
ENCODING 176
SWIDTH 625 0
DWIDTH 6 0
BBX 5 3 1 4
BITMAP
70
88
70
ENDCHAR
STARTCHAR plusminus
ENCODING 177
SWIDTH 1188 0
DWIDTH 11 0
BBX 10 5 1 0
BITMAP
0C00
FFC0
0C00
0000
FFC0
ENDCHAR
STARTCHAR uni00B2
ENCODING 178
SWIDTH 625 0
DWIDTH 8 0
BBX 5 5 2 2
BITMAP
F0
18
30
60
F8
ENDCHAR
STARTCHAR uni00B3
ENCODING 179
SWIDTH 625 0
DWIDTH 8 0
BBX 5 5 2 2
BITMAP
F0
18
70
18
F0
ENDCHAR
STARTCHAR acute
ENCODING 180
SWIDTH 1000 0
DWIDTH 9 0
BBX 4 2 3 6
BITMAP
30
C0
ENDCHAR
STARTCHAR mu
ENCODING 181
SWIDTH 1000 0
DWIDTH 9 0
BBX 8 7 1 -2
BITMAP
C6
C6
C6
C6
FB
C0
C0
ENDCHAR
STARTCHAR paragraph
ENCODING 182
SWIDTH 1000 0
DWIDTH 9 0
BBX 8 7 1 0
BITMAP
7F
F2
F2
72
12
12
12
ENDCHAR
STARTCHAR periodcentered
ENCODING 183
SWIDTH 500 0
DWIDTH 4 0
BBX 2 1 1 3
BITMAP
C0
ENDCHAR
STARTCHAR cedilla
ENCODING 184
SWIDTH 1000 0
DWIDTH 9 0
BBX 3 2 2 -2
BITMAP
20
E0
ENDCHAR
STARTCHAR uni00B9
ENCODING 185
SWIDTH 625 0
DWIDTH 8 0
BBX 4 5 2 2
BITMAP
60
E0
60
60
F0
ENDCHAR
STARTCHAR ordmasculine
ENCODING 186
SWIDTH 688 0
DWIDTH 9 0
BBX 7 7 1 0
BITMAP
7C
C6
C6
C6
7C
00
FE
ENDCHAR
STARTCHAR guillemotright
ENCODING 187
SWIDTH 938 0
DWIDTH 8 0
BBX 7 3 1 1
BITMAP
CC
66
CC
ENDCHAR
STARTCHAR onequarter
ENCODING 188
SWIDTH 1625 0
DWIDTH 17 0
BBX 15 7 1 0
BITMAP
6060
E0C0
619C
632C
F64C
0CFE
180C
ENDCHAR
STARTCHAR onehalf
ENCODING 189
SWIDTH 1625 0
DWIDTH 17 0
BBX 15 7 1 0
BITMAP
6060
E0C0
61BC
6306
F60C
0C18
183E
ENDCHAR
STARTCHAR threequarters
ENCODING 190
SWIDTH 1625 0
DWIDTH 17 0
BBX 16 7 1 0
BITMAP
F030
1860
70CE
1996
F326
067F
0C06
ENDCHAR
STARTCHAR questiondown
ENCODING 191
SWIDTH 938 0
DWIDTH 8 0
BBX 7 7 1 0
BITMAP
6C
00
3C
46
FE
C0
7C
ENDCHAR
STARTCHAR Agrave
ENCODING 192
SWIDTH 1562 0
DWIDTH 14 0
BBX 13 7 1 0
BITMAP
0200
0700
0980
10C0
3FE0
4030
E078
ENDCHAR
STARTCHAR Aacute
ENCODING 193
SWIDTH 1375 0
DWIDTH 12 0
BBX 11 7 1 0
BITMAP
FFC0
3040
3000
3F80
3060
3060
FF80
ENDCHAR
STARTCHAR Acircumflex
ENCODING 194
SWIDTH 1375 0
DWIDTH 12 0
BBX 11 7 1 0
BITMAP
FF80
3060
3060
3F80
3060
3060
FF80
ENDCHAR
STARTCHAR Atilde
ENCODING 195
SWIDTH 1188 0
DWIDTH 11 0
BBX 10 7 1 0
BITMAP
FFC0
3040
3040
3000
3000
3000
FC00
ENDCHAR
STARTCHAR Adieresis
ENCODING 196
SWIDTH 1312 0
DWIDTH 13 0
BBX 12 9 1 -2
BITMAP
3FE0
10C0
10C0
10C0
10C0
20C0
FFF0
C030
8010
ENDCHAR
STARTCHAR Aring
ENCODING 197
SWIDTH 1375 0
DWIDTH 12 0
BBX 11 7 1 0
BITMAP
FFE0
3020
3080
3F80
3080
3020
FFE0
ENDCHAR
STARTCHAR AE
ENCODING 198
SWIDTH 2062 0
DWIDTH 17 0
BBX 16 7 1 0
BITMAP
FBDF
318C
1998
0FF0
1998
318C
FBDF
ENDCHAR
STARTCHAR Ccedilla
ENCODING 199
SWIDTH 1062 0
DWIDTH 10 0
BBX 9 7 1 0
BITMAP
7F00
C180
0180
0F00
0180
C180
7F00
ENDCHAR
STARTCHAR Egrave
ENCODING 200
SWIDTH 1562 0
DWIDTH 15 0
BBX 14 7 1 0
BITMAP
FC3C
3070
30B0
3130
3230
3430
F8FC
ENDCHAR
STARTCHAR Eacute
ENCODING 201
SWIDTH 1562 0
DWIDTH 15 0
BBX 14 9 1 0
BITMAP
0660
03C0
FC3C
3070
30B0
3130
3230
3430
F8FC
ENDCHAR
STARTCHAR Ecircumflex
ENCODING 202
SWIDTH 1500 0
DWIDTH 13 0
BBX 12 7 1 0
BITMAP
FDF0
30C0
3300
3E00
3300
30C0
FDF0
ENDCHAR
STARTCHAR Edieresis
ENCODING 203
SWIDTH 1375 0
DWIDTH 13 0
BBX 12 7 1 0
BITMAP
7FF0
10C0
10C0
10C0
10C0
10C0
E3F0
ENDCHAR
STARTCHAR Igrave
ENCODING 204
SWIDTH 1875 0
DWIDTH 17 0
BBX 16 7 1 0
BITMAP
F00F
381C
2C2C
264C
238C
210C
F83F
ENDCHAR
STARTCHAR Iacute
ENCODING 205
SWIDTH 1625 0
DWIDTH 15 0
BBX 14 7 1 0
BITMAP
FCFC
3030
3030
3FF0
3030
3030
FCFC
ENDCHAR
STARTCHAR Icircumflex
ENCODING 206
SWIDTH 1500 0
DWIDTH 13 0
BBX 12 7 1 0
BITMAP
1F80
6060
C030
C030
C030
6060
1F80
ENDCHAR
STARTCHAR Idieresis
ENCODING 207
SWIDTH 1625 0
DWIDTH 15 0
BBX 14 7 1 0
BITMAP
FFFC
3030
3030
3030
3030
3030
FCFC
ENDCHAR
STARTCHAR Eth
ENCODING 208
SWIDTH 1250 0
DWIDTH 12 0
BBX 11 7 1 0
BITMAP
FF80
3060
3060
3F80
3000
3000
FC00
ENDCHAR
STARTCHAR Ntilde
ENCODING 209
SWIDTH 1438 0
DWIDTH 12 0
BBX 11 7 1 0
BITMAP
1FA0
6060
C020
C000
C000
6060
1F80
ENDCHAR
STARTCHAR Ograve
ENCODING 210
SWIDTH 1375 0
DWIDTH 11 0
BBX 10 7 1 0
BITMAP
FFC0
8C40
0C00
0C00
0C00
0C00
3F00
ENDCHAR
STARTCHAR Oacute
ENCODING 211
SWIDTH 1625 0
DWIDTH 14 0
BBX 13 7 1 0
BITMAP
FCF8
3020
1840
0C80
0700
0200
1C00
ENDCHAR
STARTCHAR Ocircumflex
ENCODING 212
SWIDTH 1750 0
DWIDTH 15 0
BBX 14 7 1 0
BITMAP
1FE0
6318
C30C
C30C
6318
3FF0
0300
ENDCHAR
STARTCHAR Otilde
ENCODING 213
SWIDTH 1688 0
DWIDTH 14 0
BBX 13 7 1 0
BITMAP
F8F8
3060
0C80
0700
0980
3060
F8F8
ENDCHAR
STARTCHAR Odieresis
ENCODING 214
SWIDTH 1625 0
DWIDTH 15 0
BBX 14 9 1 -2
BITMAP
FCFC
3030
3030
3030
3030
3030
FFFC
000C
0004
ENDCHAR
STARTCHAR multiply
ENCODING 215
SWIDTH 1625 0
DWIDTH 15 0
BBX 14 7 1 0
BITMAP
FCFC
3030
3030
1FF0
0030
0030
00FC
ENDCHAR
STARTCHAR Oslash
ENCODING 216
SWIDTH 2000 0
DWIDTH 19 0
BBX 18 7 1 0
BITMAP
FDEFC0
30C300
30C300
30C300
30C300
30C300
FFFFC0
ENDCHAR
STARTCHAR Ugrave
ENCODING 217
SWIDTH 2000 0
DWIDTH 19 0
BBX 18 9 1 -2
BITMAP
FDEFC0
30C300
30C300
30C300
30C300
30C300
FFFFC0
0000C0
000040
ENDCHAR
STARTCHAR Uacute
ENCODING 218
SWIDTH 1500 0
DWIDTH 14 0
BBX 13 7 1 0
BITMAP
FF00
CC00
8C00
0FE0
0C18
0C18
3FE0
ENDCHAR
STARTCHAR Ucircumflex
ENCODING 219
SWIDTH 1875 0
DWIDTH 18 0
BBX 17 7 1 0
BITMAP
FC1F80
300600
300600
3FC600
306600
306600
FFDF80
ENDCHAR
STARTCHAR Udieresis
ENCODING 220
SWIDTH 1375 0
DWIDTH 12 0
BBX 11 7 1 0
BITMAP
FC00
3000
3000
3F80
3060
3060
FF80
ENDCHAR
STARTCHAR Yacute
ENCODING 221
SWIDTH 1375 0
DWIDTH 10 0
BBX 9 7 1 0
BITMAP
7F00
C180
0180
1F80
0180
C180
7F00
ENDCHAR
STARTCHAR Thorn
ENCODING 222
SWIDTH 2062 0
DWIDTH 19 0
BBX 18 7 1 0
BITMAP
FC7E00
318180
3300C0
3F00C0
3300C0
318180
FC7E00
ENDCHAR
STARTCHAR germandbls
ENCODING 223
SWIDTH 1500 0
DWIDTH 13 0
BBX 12 7 1 0
BITMAP
1FF0
30C0
30C0
1FC0
18C0
30C0
E3F0
ENDCHAR
STARTCHAR agrave
ENCODING 224
SWIDTH 1000 0
DWIDTH 9 0
BBX 8 5 1 0
BITMAP
7C
06
7E
C6
7B
ENDCHAR
STARTCHAR aacute
ENCODING 225
SWIDTH 1000 0
DWIDTH 10 0
BBX 8 8 2 0
BITMAP
06
7C
C0
DE
E3
C3
C3
7C
ENDCHAR
STARTCHAR acircumflex
ENCODING 226
SWIDTH 938 0
DWIDTH 9 0
BBX 8 5 1 0
BITMAP
FC
66
7E
63
FE
ENDCHAR
STARTCHAR atilde
ENCODING 227
SWIDTH 812 0
DWIDTH 8 0
BBX 7 5 1 0
BITMAP
FE
62
60
60
F0
ENDCHAR
STARTCHAR adieresis
ENCODING 228
SWIDTH 1062 0
DWIDTH 9 0
BBX 8 6 1 -1
BITMAP
7F
26
26
46
FF
81
ENDCHAR
STARTCHAR aring
ENCODING 229
SWIDTH 938 0
DWIDTH 8 0
BBX 7 5 1 0
BITMAP
3C
46
FE
C0
7C
ENDCHAR
STARTCHAR ae
ENCODING 230
SWIDTH 1562 0
DWIDTH 12 0
BBX 11 5 1 0
BITMAP
EEE0
3580
1F00
3580
EEE0
ENDCHAR
STARTCHAR ccedilla
ENCODING 231
SWIDTH 812 0
DWIDTH 8 0
BBX 7 5 1 0
BITMAP
7C
C6
1C
C6
7C
ENDCHAR
STARTCHAR egrave
ENCODING 232
SWIDTH 1125 0
DWIDTH 10 0
BBX 9 5 1 0
BITMAP
F380
6700
6B00
7300
E780
ENDCHAR
STARTCHAR eacute
ENCODING 233
SWIDTH 1125 0
DWIDTH 10 0
BBX 9 8 1 0
BITMAP
1400
1C00
0000
F380
6700
6B00
7300
E780
ENDCHAR
STARTCHAR ecircumflex
ENCODING 234
SWIDTH 1062 0
DWIDTH 9 0
BBX 8 5 1 0
BITMAP
E7
6C
78
6C
E7
ENDCHAR
STARTCHAR edieresis
ENCODING 235
SWIDTH 1062 0
DWIDTH 10 0
BBX 9 5 1 0
BITMAP
3F80
1300
1300
1300
E780
ENDCHAR
STARTCHAR igrave
ENCODING 236
SWIDTH 1375 0
DWIDTH 13 0
BBX 12 5 1 0
BITMAP
E070
70E0
5960
4E60
E4F0
ENDCHAR
STARTCHAR iacute
ENCODING 237
SWIDTH 1125 0
DWIDTH 10 0
BBX 9 5 1 0
BITMAP
F780
6300
7F00
6300
F780
ENDCHAR
STARTCHAR icircumflex
ENCODING 238
SWIDTH 1000 0
DWIDTH 9 0
BBX 8 5 1 0
BITMAP
3E
43
C3
C2
7C
ENDCHAR
STARTCHAR idieresis
ENCODING 239
SWIDTH 1125 0
DWIDTH 10 0
BBX 9 5 1 0
BITMAP
FF80
6300
6300
6300
F780
ENDCHAR
STARTCHAR eth
ENCODING 240
SWIDTH 1125 0
DWIDTH 10 0
BBX 9 7 1 -2
BITMAP
FF00
6180
6180
6100
7E00
6000
F800
ENDCHAR
STARTCHAR ntilde
ENCODING 241
SWIDTH 875 0
DWIDTH 7 0
BBX 6 5 1 0
BITMAP
3C
4C
C0
C4
78
ENDCHAR
STARTCHAR ograve
ENCODING 242
SWIDTH 938 0
DWIDTH 9 0
BBX 8 5 1 0
BITMAP
FF
99
18
18
3C
ENDCHAR
STARTCHAR oacute
ENCODING 243
SWIDTH 1062 0
DWIDTH 9 0
BBX 8 7 1 -2
BITMAP
F7
62
34
34
18
D0
E0
ENDCHAR
STARTCHAR ocircumflex
ENCODING 244
SWIDTH 1250 0
DWIDTH 11 0
BBX 10 7 1 -2
BITMAP
7F80
CCC0
CCC0
CCC0
7F80
0C00
1E00
ENDCHAR
STARTCHAR otilde
ENCODING 245
SWIDTH 938 0
DWIDTH 8 0
BBX 7 5 1 0
BITMAP
EE
64
38
4C
EE
ENDCHAR
STARTCHAR odieresis
ENCODING 246
SWIDTH 1125 0
DWIDTH 10 0
BBX 9 6 1 -1
BITMAP
F780
6300
6300
6300
FF80
0080
ENDCHAR
STARTCHAR divide
ENCODING 247
SWIDTH 1125 0
DWIDTH 10 0
BBX 9 5 1 0
BITMAP
F780
6300
3F00
0300
0780
ENDCHAR
STARTCHAR oslash
ENCODING 248
SWIDTH 1688 0
DWIDTH 15 0
BBX 14 5 1 0
BITMAP
F7BC
6318
6318
6318
FFFC
ENDCHAR
STARTCHAR ugrave
ENCODING 249
SWIDTH 1688 0
DWIDTH 15 0
BBX 14 6 1 -1
BITMAP
F7BC
6318
6318
6318
FFFC
0004
ENDCHAR
STARTCHAR uacute
ENCODING 250
SWIDTH 1188 0
DWIDTH 11 0
BBX 10 5 1 0
BITMAP
FC00
9800
1F80
18C0
3F80
ENDCHAR
STARTCHAR ucircumflex
ENCODING 251
SWIDTH 1438 0
DWIDTH 13 0
BBX 12 5 1 0
BITMAP
F0F0
6060
7E60
6360
FEF0
ENDCHAR
STARTCHAR udieresis
ENCODING 252
SWIDTH 1000 0
DWIDTH 9 0
BBX 8 5 1 0
BITMAP
F0
60
7E
63
FE
ENDCHAR
STARTCHAR yacute
ENCODING 253
SWIDTH 812 0
DWIDTH 8 0
BBX 7 5 1 0
BITMAP
7C
C6
1E
C6
7C
ENDCHAR
STARTCHAR thorn
ENCODING 254
SWIDTH 1438 0
DWIDTH 14 0
BBX 13 5 1 0
BITMAP
F1F0
6618
7E18
6618
F3E0
ENDCHAR
STARTCHAR ydieresis
ENCODING 255
SWIDTH 1000 0
DWIDTH 10 0
BBX 9 5 1 0
BITMAP
3F80
6300
3F00
3300
E780
ENDCHAR
ENDFONT
